#define cagey.xbm_width 64
#define cagey.xbm_height 64
static char cagey.xbm_bits[] = {
   0x00, 0x00, 0x00, 0x00, 0x00, 0x00, 0x00, 0x00, 0x00, 0x00, 0x00, 0x00,
   0x00, 0x00, 0x00, 0x00, 0x00, 0x00, 0x00, 0x00, 0x00, 0x00, 0x00, 0x00,
   0x00, 0x00, 0x00, 0x00, 0x00, 0x00, 0x00, 0x00, 0x00, 0x00, 0x00, 0x02,
   0x00, 0x00, 0x00, 0x00, 0x00, 0x00, 0x00, 0x00, 0x00, 0x00, 0x00, 0x00,
   0x00, 0xda, 0xf1, 0x6a, 0x00, 0x00, 0x00, 0x00, 0x00, 0x76, 0x8b, 0xda,
   0x00, 0x00, 0x00, 0x00, 0x00, 0x22, 0x8a, 0x8a, 0x00, 0x00, 0x00, 0x00,
   0x00, 0x22, 0x8a, 0x8a, 0x00, 0x00, 0x00, 0x00, 0x00, 0x22, 0xf2, 0x8a,
   0x00, 0x00, 0x00, 0x00, 0x00, 0x00, 0x00, 0x00, 0x00, 0x00, 0x00, 0x00,
   0x00, 0x00, 0x00, 0x00, 0x00, 0x00, 0x00, 0x00, 0x00, 0x08, 0x00, 0x00,
   0x00, 0x00, 0x00, 0x00, 0x00, 0x08, 0x00, 0x00, 0x00, 0x00, 0x00, 0x00,
   0x00, 0x08, 0x00, 0x00, 0x00, 0x00, 0x00, 0x00, 0x00, 0x08, 0x00, 0x0c,
   0x00, 0x00, 0x00, 0x00, 0x00, 0x08, 0x00, 0x02, 0x00, 0x00, 0x00, 0x00,
   0x00, 0x08, 0x08, 0xc2, 0x71, 0x00, 0x00, 0x00, 0x00, 0xf8, 0x9f, 0x2f,
   0x8a, 0x00, 0x00, 0x00, 0x00, 0x08, 0x08, 0x22, 0x8a, 0x00, 0x00, 0x00,
   0x00, 0x08, 0x00, 0x22, 0x8a, 0x00, 0x00, 0x00, 0x00, 0x08, 0x00, 0xc2,
   0x71, 0x00, 0x00, 0x00, 0x00, 0x08, 0x00, 0x00, 0x00, 0x00, 0x00, 0x00,
   0x00, 0x08, 0x00, 0x00, 0x00, 0x00, 0x00, 0x00, 0x00, 0x08, 0x00, 0x00,
   0x00, 0x00, 0x00, 0x00, 0x00, 0x08, 0x80, 0x00, 0x00, 0x00, 0x00, 0x00,
   0x00, 0x08, 0x80, 0x00, 0x00, 0x00, 0x00, 0x00, 0x00, 0x08, 0x88, 0xc7,
   0x6b, 0x00, 0x00, 0x00, 0x00, 0xf8, 0x9f, 0x28, 0x5a, 0x00, 0x00, 0x00,
   0x00, 0x08, 0x88, 0x28, 0x0a, 0x00, 0x00, 0x00, 0x00, 0x08, 0x80, 0x28,
   0x0a, 0x00, 0x00, 0x00, 0x00, 0x08, 0x80, 0xc7, 0x0b, 0x00, 0x00, 0x00,
   0x00, 0x08, 0x00, 0x00, 0x00, 0x00, 0x00, 0x00, 0x00, 0x08, 0x00, 0x00,
   0x00, 0x00, 0x00, 0x00, 0x00, 0x08, 0x00, 0x02, 0x00, 0x00, 0x00, 0x00,
   0x00, 0x08, 0x00, 0x02, 0x00, 0x00, 0x00, 0x00, 0x00, 0x08, 0x00, 0x02,
   0x00, 0x00, 0x00, 0x00, 0x00, 0x08, 0x00, 0x02, 0x00, 0x00, 0x00, 0x00,
   0x00, 0x08, 0x00, 0x02, 0x00, 0x00, 0x00, 0x00, 0x00, 0x08, 0x00, 0x02,
   0xe2, 0xf3, 0x1e, 0x00, 0x00, 0x08, 0x00, 0xfe, 0x07, 0x89, 0x22, 0x00,
   0x00, 0x08, 0x00, 0x00, 0x82, 0x88, 0x22, 0x00, 0x00, 0x08, 0x00, 0x00,
   0x40, 0x88, 0x22, 0x00, 0x00, 0x08, 0x00, 0x00, 0xe0, 0xf3, 0x1e, 0x00,
   0x00, 0x08, 0x00, 0x00, 0x00, 0x00, 0x02, 0x00, 0x00, 0x08, 0x00, 0x00,
   0x00, 0x00, 0x02, 0x00, 0x00, 0x08, 0x00, 0x00, 0x00, 0x00, 0x00, 0x00,
   0x00, 0x08, 0x00, 0x00, 0x00, 0x00, 0x00, 0x00, 0x00, 0x08, 0x00, 0x00,
   0x00, 0x00, 0x00, 0x00, 0x00, 0x08, 0x80, 0x00, 0x00, 0x00, 0x00, 0x00,
   0x00, 0x08, 0x80, 0x00, 0x00, 0x00, 0x00, 0x00, 0x00, 0x08, 0x88, 0xc2,
   0x71, 0x00, 0x00, 0x00, 0x00, 0xf8, 0x9f, 0x25, 0x8a, 0x00, 0x00, 0x00,
   0x00, 0x00, 0x88, 0x28, 0x8a, 0x00, 0x00, 0x00, 0x00, 0x00, 0x80, 0x28,
   0x8a, 0x00, 0x00, 0x00, 0x00, 0x00, 0x80, 0xc8, 0xf1, 0x00, 0x00, 0x00,
   0x00, 0x00, 0x00, 0x00, 0x80, 0x00, 0x00, 0x00, 0x00, 0x00, 0x00, 0x00,
   0xf8, 0x00, 0x00, 0x00, 0x00, 0x00, 0x00, 0x00, 0x00, 0x00, 0x00, 0x00,
   0x00, 0x00, 0x00, 0x00, 0x00, 0x00, 0x00, 0x00, 0x00, 0x00, 0x00, 0x00,
   0x00, 0x00, 0x00, 0x00, 0x00, 0x00, 0x00, 0x00, 0x00, 0x00, 0x00, 0x00,
   0x00, 0x00, 0x00, 0x00, 0x00, 0x00, 0x00, 0x00};
