#define classy.xbm_width 64
#define classy.xbm_height 64
static char classy.xbm_bits[] = {
   0x00, 0x00, 0x00, 0x00, 0x00, 0x00, 0x00, 0x00, 0x00, 0x00, 0x00, 0x00,
   0x00, 0x00, 0x00, 0x00, 0x00, 0x00, 0x00, 0x00, 0x00, 0x00, 0x00, 0x00,
   0x00, 0x00, 0x00, 0x00, 0x00, 0x00, 0x00, 0x00, 0x00, 0x00, 0x00, 0x00,
   0x00, 0x00, 0x00, 0x00, 0x00, 0x00, 0x00, 0x00, 0xc0, 0xff, 0xff, 0x07,
   0x00, 0x00, 0x00, 0x00, 0x40, 0x00, 0x00, 0x04, 0x00, 0x00, 0x00, 0x00,
   0x40, 0x18, 0x00, 0x04, 0x00, 0x00, 0x00, 0x00, 0x40, 0x04, 0x00, 0x04,
   0x00, 0x00, 0x00, 0x00, 0x40, 0x84, 0xe3, 0x04, 0x00, 0x00, 0x00, 0x00,
   0x58, 0x5f, 0x14, 0x05, 0x00, 0x00, 0x00, 0x00, 0x58, 0x44, 0x14, 0x05,
   0x00, 0x00, 0x00, 0x00, 0x44, 0x44, 0x14, 0x05, 0x00, 0x00, 0x00, 0x00,
   0x44, 0x84, 0xe3, 0x04, 0x00, 0x00, 0x00, 0x00, 0x42, 0x00, 0x00, 0x04,
   0x00, 0x00, 0x00, 0x00, 0xc1, 0xff, 0xff, 0x07, 0x00, 0x00, 0x00, 0x80,
   0x00, 0x00, 0x00, 0x00, 0x00, 0x00, 0x00, 0x80, 0x00, 0x00, 0x00, 0x00,
   0x00, 0x00, 0x00, 0x40, 0x00, 0x00, 0x00, 0x00, 0xe0, 0xff, 0xff, 0x23,
   0xc0, 0xff, 0xff, 0x07, 0x20, 0x00, 0x00, 0x12, 0x40, 0x00, 0x00, 0x04,
   0xa0, 0xc2, 0x71, 0x12, 0x40, 0x01, 0x00, 0x04, 0xa0, 0x25, 0x8a, 0x0a,
   0x40, 0x01, 0x00, 0x04, 0xa0, 0x28, 0x8a, 0x02, 0x48, 0x8f, 0xd7, 0x04,
   0xa0, 0x28, 0x8a, 0xfa, 0x5f, 0x51, 0xb4, 0x04, 0xa0, 0xc8, 0xf1, 0x02,
   0x48, 0x51, 0x14, 0x04, 0x20, 0x00, 0x80, 0x0a, 0x40, 0x51, 0x14, 0x04,
   0x20, 0x00, 0xf8, 0x12, 0x40, 0x8f, 0x17, 0x04, 0x20, 0x00, 0x00, 0x12,
   0x40, 0x00, 0x00, 0x04, 0xe0, 0xff, 0xff, 0x23, 0xc0, 0xff, 0xff, 0x07,
   0x00, 0x00, 0x00, 0x40, 0x00, 0x00, 0x00, 0x00, 0x00, 0x00, 0x00, 0x80,
   0x00, 0x00, 0x00, 0x00, 0x00, 0x00, 0x00, 0x80, 0x00, 0x00, 0x00, 0x00,
   0x00, 0x00, 0x00, 0x00, 0xc1, 0xff, 0xff, 0x07, 0x00, 0x00, 0x00, 0x00,
   0x42, 0x00, 0x00, 0x04, 0x00, 0x00, 0x00, 0x00, 0x44, 0x9f, 0xf7, 0x04,
   0x00, 0x00, 0x00, 0x00, 0x44, 0x48, 0x14, 0x05, 0x00, 0x00, 0x00, 0x00,
   0x58, 0x44, 0x14, 0x05, 0x00, 0x00, 0x00, 0x00, 0x58, 0x42, 0x14, 0x05,
   0x00, 0x00, 0x00, 0x00, 0x40, 0x9f, 0xf7, 0x04, 0x00, 0x00, 0x00, 0x00,
   0x40, 0x00, 0x10, 0x04, 0x00, 0x00, 0x00, 0x00, 0x40, 0x00, 0x10, 0x04,
   0x00, 0x00, 0x00, 0x00, 0x40, 0x00, 0x00, 0x04, 0x00, 0x00, 0x00, 0x00,
   0xc0, 0xff, 0xff, 0x07, 0xe0, 0xff, 0xff, 0x3f, 0x00, 0x00, 0x00, 0x00,
   0x20, 0x00, 0x00, 0x20, 0x00, 0x00, 0x00, 0x00, 0xa0, 0xff, 0xff, 0x2f,
   0x00, 0x00, 0x00, 0x00, 0xa0, 0x00, 0x00, 0x28, 0x00, 0x00, 0x00, 0x00,
   0xa0, 0x00, 0x20, 0x28, 0x00, 0x00, 0x00, 0x00, 0xa0, 0x00, 0x20, 0x28,
   0x00, 0x00, 0x00, 0x00, 0xa0, 0x1c, 0xe7, 0x29, 0x00, 0x00, 0x00, 0x00,
   0xa0, 0xa2, 0x28, 0x2a, 0x00, 0x00, 0x00, 0x00, 0xa0, 0x82, 0x28, 0x2a,
   0x00, 0x00, 0x00, 0x00, 0xa0, 0xa2, 0x28, 0x2a, 0x00, 0x00, 0x00, 0x00,
   0xa0, 0x1c, 0xc7, 0x29, 0x00, 0x00, 0x00, 0x00, 0xa0, 0x00, 0x00, 0x28,
   0x00, 0x00, 0x00, 0x00, 0xa0, 0xff, 0xff, 0x2f, 0x00, 0x00, 0x00, 0x00,
   0x20, 0x00, 0x00, 0x20, 0x00, 0x00, 0x00, 0x00, 0xe0, 0xff, 0xff, 0x3f,
   0x00, 0x00, 0x00, 0x00, 0x00, 0x00, 0x00, 0x00, 0x00, 0x00, 0x00, 0x00,
   0x00, 0x00, 0x00, 0x00, 0x00, 0x00, 0x00, 0x00, 0x00, 0x00, 0x00, 0x00,
   0x00, 0x00, 0x00, 0x00, 0x00, 0x00, 0x00, 0x00, 0x00, 0x00, 0x00, 0x00,
   0x00, 0x00, 0x00, 0x00, 0x00, 0x00, 0x00, 0x00};
