#define dumpy.xbm_width 64
#define dumpy.xbm_height 64
static char dumpy.xbm_bits[] = {
   0x00, 0x00, 0x00, 0x00, 0x00, 0x00, 0x00, 0x00, 0x00, 0x00, 0x00, 0x00,
   0x00, 0x00, 0x00, 0x00, 0x00, 0x00, 0x00, 0x00, 0x00, 0x00, 0x00, 0x00,
   0x00, 0x00, 0x00, 0x00, 0x00, 0x00, 0x00, 0x00, 0x00, 0x00, 0x00, 0x00,
   0x00, 0x00, 0x00, 0x00, 0x00, 0x00, 0x00, 0x00, 0x00, 0x00, 0x00, 0x00,
   0x00, 0x00, 0x00, 0x00, 0x00, 0x00, 0x00, 0x00, 0x00, 0x00, 0x00, 0x00,
   0x00, 0x00, 0x00, 0x00, 0x00, 0x00, 0x00, 0x00, 0x00, 0x00, 0x00, 0x00,
   0x00, 0x00, 0x00, 0x00, 0x00, 0x00, 0x00, 0x00, 0x00, 0x00, 0x00, 0x00,
   0x00, 0x00, 0x00, 0x00, 0x00, 0x00, 0x00, 0x00, 0x00, 0x00, 0x7c, 0x00,
   0x00, 0x00, 0x00, 0x00, 0x00, 0xc0, 0xff, 0x00, 0x00, 0x00, 0x00, 0x00,
   0x00, 0xf8, 0xff, 0x01, 0x00, 0x00, 0x00, 0x00, 0x80, 0xff, 0xff, 0x03,
   0x00, 0x00, 0x00, 0x00, 0xf8, 0xff, 0xff, 0x03, 0x00, 0x00, 0x00, 0x00,
   0x04, 0xff, 0xff, 0x07, 0x00, 0x00, 0x00, 0x00, 0x02, 0xfe, 0xff, 0x07,
   0x00, 0x00, 0x00, 0x00, 0x01, 0xfc, 0xff, 0x0f, 0x00, 0x00, 0x00, 0x00,
   0x01, 0xfc, 0xff, 0x0f, 0x00, 0x00, 0x00, 0x80, 0x00, 0xf8, 0xff, 0x0f,
   0x00, 0x00, 0x00, 0x98, 0x00, 0xf8, 0xff, 0x0f, 0x00, 0x00, 0x00, 0x44,
   0x88, 0xf0, 0xff, 0x0f, 0x00, 0x00, 0x00, 0x43, 0x46, 0xf0, 0xff, 0x0f,
   0x00, 0x00, 0xc0, 0x40, 0x21, 0xf0, 0xff, 0x0f, 0x00, 0x00, 0x30, 0xc0,
   0x10, 0xf0, 0xff, 0x0f, 0x00, 0x20, 0x08, 0x60, 0x08, 0xf0, 0xff, 0x0f,
   0x00, 0x10, 0x00, 0x50, 0x84, 0xf0, 0xff, 0x07, 0x00, 0x0c, 0x00, 0x40,
   0x42, 0xf0, 0xff, 0x07, 0x00, 0x02, 0xf0, 0x40, 0x42, 0xf0, 0xff, 0x03,
   0x00, 0x01, 0x0c, 0x43, 0x21, 0xf0, 0xff, 0x03, 0xc0, 0x00, 0x02, 0x84,
   0x10, 0xf8, 0xff, 0x01, 0x20, 0x00, 0x01, 0xc4, 0x10, 0xf8, 0xff, 0x00,
   0x10, 0x20, 0x01, 0x08, 0x09, 0xfc, 0x3f, 0x00, 0x00, 0x10, 0x02, 0x08,
   0x05, 0xfc, 0x07, 0x00, 0x00, 0x08, 0x04, 0x08, 0x02, 0x7e, 0x00, 0x00,
   0x00, 0x04, 0x08, 0x08, 0x86, 0x07, 0x00, 0x00, 0x00, 0x03, 0x10, 0x08,
   0xf9, 0x00, 0x00, 0x00, 0x80, 0x00, 0x20, 0x84, 0x00, 0x00, 0x00, 0x00,
   0x40, 0xe0, 0x41, 0x82, 0x00, 0x00, 0x00, 0x00, 0x20, 0x18, 0x81, 0x41,
   0x00, 0x00, 0x00, 0x00, 0x00, 0x84, 0x00, 0x01, 0x00, 0x00, 0x00, 0x00,
   0x00, 0x84, 0x10, 0x02, 0x00, 0x00, 0x00, 0x00, 0x00, 0x42, 0x10, 0x04,
   0x00, 0x00, 0x00, 0x00, 0x40, 0x42, 0x10, 0x08, 0x00, 0x00, 0x00, 0x00,
   0x20, 0x42, 0x10, 0x10, 0x00, 0x00, 0x00, 0x00, 0x10, 0x22, 0x10, 0x20,
   0x00, 0x00, 0x00, 0x00, 0x10, 0x24, 0x08, 0x00, 0x00, 0x00, 0x00, 0x00,
   0x08, 0x14, 0x08, 0x00, 0x00, 0x00, 0x00, 0x00, 0x00, 0x18, 0x06, 0x11,
   0x00, 0x00, 0x00, 0x00, 0x01, 0xe0, 0x81, 0x08, 0x00, 0x00, 0x00, 0x00,
   0x06, 0x00, 0x80, 0x08, 0x00, 0x00, 0x00, 0x00, 0x78, 0x00, 0x40, 0x00,
   0x00, 0x00, 0x00, 0x00, 0xc0, 0x07, 0x40, 0x00, 0x00, 0x00, 0x00, 0x00,
   0x40, 0xf8, 0x20, 0x00, 0x00, 0x00, 0x00, 0x00, 0x20, 0x80, 0x20, 0x00,
   0x00, 0x00, 0x00, 0x00, 0x24, 0x40, 0x10, 0x00, 0x00, 0x00, 0x00, 0x00,
   0x22, 0x40, 0x00, 0x00, 0x00, 0x00, 0x00, 0x00, 0x22, 0x20, 0x00, 0x00,
   0x00, 0x00, 0x00, 0x00, 0x21, 0x20, 0x04, 0x00, 0x00, 0x00, 0x00, 0x00,
   0x40, 0x10, 0x04, 0x00, 0x00, 0x00, 0x00, 0x00, 0x80, 0x1f, 0x02, 0x00,
   0x00, 0x00, 0x00, 0x00, 0x00, 0x00, 0x02, 0x00, 0x00, 0x00, 0x00, 0x00,
   0x00, 0x00, 0x00, 0x00, 0x00, 0x00, 0x00, 0x00};
