#define cosy.xbm_width 64
#define cosy.xbm_height 64
static char cosy.xbm_bits[] = {
   0x00, 0x00, 0x00, 0x00, 0x00, 0x00, 0x00, 0x00, 0x00, 0x00, 0x00, 0x00,
   0x00, 0x00, 0x00, 0x00, 0x00, 0x00, 0x00, 0x00, 0x00, 0x00, 0x00, 0x00,
   0x00, 0x00, 0x00, 0x00, 0x00, 0x00, 0x00, 0x00, 0x00, 0x00, 0x10, 0x80,
   0x04, 0x10, 0x24, 0x00, 0x00, 0x00, 0x00, 0x40, 0x00, 0x10, 0x40, 0x00,
   0xd0, 0x8e, 0x57, 0x43, 0xd4, 0x7c, 0x44, 0x04, 0xb0, 0x5b, 0xd4, 0x66,
   0xb4, 0x11, 0xc4, 0x00, 0x10, 0x51, 0x54, 0x44, 0x14, 0x11, 0x44, 0x04,
   0x10, 0x51, 0x54, 0x44, 0x14, 0x11, 0x44, 0x04, 0x10, 0x91, 0x57, 0x84,
   0x14, 0x11, 0x24, 0x02, 0x00, 0x00, 0x00, 0x00, 0x00, 0x00, 0x00, 0x00,
   0x00, 0x00, 0x00, 0x00, 0x00, 0x00, 0x00, 0x00, 0x00, 0x00, 0x00, 0x00,
   0x00, 0x00, 0x00, 0x00, 0x00, 0x00, 0x00, 0xfc, 0xff, 0x00, 0x00, 0x00,
   0x00, 0x00, 0x00, 0xfe, 0xff, 0x00, 0x00, 0x00, 0x00, 0x00, 0x00, 0x02,
   0xc0, 0x00, 0x00, 0x00, 0x00, 0x00, 0x00, 0x02, 0xc0, 0x00, 0x00, 0x00,
   0x00, 0x00, 0x00, 0x02, 0xc0, 0x00, 0x00, 0x00, 0x00, 0x00, 0x00, 0x02,
   0xc0, 0x00, 0x00, 0x00, 0x00, 0x00, 0x00, 0x02, 0xc0, 0x00, 0x00, 0x00,
   0x00, 0x00, 0x00, 0x02, 0xc0, 0x00, 0x00, 0x00, 0x00, 0x00, 0x00, 0x02,
   0xc0, 0x00, 0x00, 0x00, 0x00, 0x00, 0x00, 0x02, 0xc0, 0x00, 0x00, 0x00,
   0x00, 0x00, 0x00, 0x02, 0xc0, 0x00, 0x00, 0x00, 0x00, 0x00, 0x00, 0x02,
   0xc0, 0x00, 0x00, 0x00, 0x00, 0x00, 0x00, 0x02, 0xc0, 0x00, 0x00, 0x00,
   0x00, 0x00, 0x00, 0x02, 0xc0, 0x00, 0x00, 0x00, 0x00, 0x00, 0x00, 0x02,
   0xc0, 0x00, 0x00, 0x00, 0x00, 0x00, 0x00, 0x02, 0xc0, 0x00, 0x00, 0x00,
   0x00, 0x00, 0x00, 0x02, 0xc0, 0x00, 0x00, 0x00, 0x00, 0x00, 0x00, 0x02,
   0xc0, 0x00, 0x00, 0x00, 0x00, 0x00, 0x00, 0x02, 0xc0, 0x00, 0x00, 0x00,
   0x00, 0x00, 0x00, 0x02, 0xc0, 0x00, 0x00, 0x00, 0x00, 0x00, 0x00, 0x02,
   0xc0, 0x00, 0x00, 0x00, 0x00, 0x00, 0x00, 0x02, 0xc0, 0x00, 0x00, 0x00,
   0x00, 0x00, 0x00, 0x02, 0xc0, 0x1f, 0x00, 0x00, 0x00, 0x00, 0xf0, 0x03,
   0xc0, 0x1f, 0x00, 0x00, 0x00, 0x00, 0x20, 0x00, 0x00, 0x0c, 0x00, 0x00,
   0x00, 0x00, 0x40, 0x00, 0x00, 0x06, 0x00, 0x00, 0x00, 0x00, 0x80, 0x00,
   0x00, 0x03, 0x00, 0x00, 0x00, 0x00, 0x00, 0x01, 0x80, 0x01, 0x00, 0x00,
   0x00, 0x00, 0x00, 0x02, 0xc0, 0x00, 0x00, 0x00, 0x00, 0x00, 0x00, 0x04,
   0x60, 0x00, 0x00, 0x00, 0x00, 0x00, 0x00, 0x08, 0x30, 0x00, 0x00, 0x00,
   0x00, 0x00, 0x00, 0x10, 0x18, 0x00, 0x00, 0x00, 0x00, 0x00, 0x00, 0x20,
   0x0c, 0x00, 0x00, 0x00, 0x00, 0x00, 0x00, 0x40, 0x06, 0x00, 0x00, 0x00,
   0x00, 0x00, 0x00, 0x80, 0x03, 0x00, 0x00, 0x00, 0x00, 0x00, 0x00, 0x00,
   0x00, 0x00, 0x00, 0x00, 0x00, 0x00, 0x00, 0x00, 0x00, 0x00, 0x00, 0x00,
   0x00, 0x00, 0x00, 0x00, 0x00, 0x00, 0x00, 0x00, 0x00, 0x00, 0x00, 0x00,
   0x00, 0x00, 0x00, 0x00, 0x90, 0x38, 0xe2, 0x70, 0xc4, 0x91, 0xc4, 0x01,
   0x90, 0x44, 0x12, 0x89, 0x24, 0x92, 0x24, 0x02, 0x90, 0x44, 0x12, 0x89,
   0x24, 0x92, 0x24, 0x02, 0x90, 0x44, 0x12, 0x89, 0x24, 0x92, 0x24, 0x02,
   0x90, 0x44, 0x12, 0x89, 0x24, 0x92, 0x24, 0x02, 0x90, 0x44, 0x12, 0x89,
   0x24, 0x92, 0x24, 0x02, 0x90, 0x38, 0xe2, 0x70, 0xc4, 0x91, 0xc4, 0x01,
   0x00, 0x00, 0x00, 0x00, 0x00, 0x00, 0x00, 0x00, 0x00, 0x00, 0x00, 0x00,
   0x00, 0x00, 0x00, 0x00, 0x00, 0x00, 0x00, 0x00, 0x00, 0x00, 0x00, 0x00,
   0x00, 0x00, 0x00, 0x00, 0x00, 0x00, 0x00, 0x00};
