#define speedy.xbm_width 64
#define speedy.xbm_height 64
static char speedy.xbm_bits[] = {
   0x00, 0x00, 0x00, 0x00, 0x00, 0x00, 0x00, 0x00, 0x00, 0x00, 0x00, 0x00,
   0x00, 0x00, 0x00, 0x00, 0x00, 0x00, 0x00, 0x00, 0x00, 0x00, 0x00, 0x00,
   0x40, 0x00, 0x00, 0x00, 0x00, 0x00, 0x00, 0x00, 0x40, 0x00, 0x00, 0x00,
   0x00, 0x00, 0x00, 0x00, 0xe0, 0x00, 0x00, 0x00, 0x00, 0x00, 0x00, 0x00,
   0xe0, 0x00, 0x00, 0x00, 0x00, 0x00, 0x00, 0x00, 0xf0, 0x01, 0x00, 0x00,
   0x00, 0x00, 0x00, 0x01, 0xf0, 0x01, 0x00, 0x00, 0x00, 0x00, 0x80, 0x00,
   0x40, 0x00, 0x00, 0x00, 0x00, 0x00, 0x00, 0x00, 0x40, 0x00, 0x00, 0x00,
   0x00, 0x00, 0x00, 0x00, 0x40, 0x00, 0x00, 0x00, 0x00, 0x00, 0x10, 0x00,
   0x40, 0x00, 0x00, 0x00, 0x00, 0x00, 0x08, 0x00, 0x40, 0x00, 0x00, 0x00,
   0x00, 0x00, 0x00, 0x00, 0x40, 0x00, 0x00, 0x00, 0x00, 0x00, 0x00, 0x00,
   0x40, 0x00, 0x00, 0x00, 0x00, 0x00, 0x01, 0x00, 0x40, 0x00, 0x00, 0x00,
   0x00, 0x80, 0x00, 0x00, 0x40, 0x00, 0x00, 0x00, 0x00, 0x00, 0x00, 0x00,
   0x40, 0x00, 0x00, 0x00, 0x00, 0x00, 0x00, 0x00, 0x40, 0x00, 0x00, 0x00,
   0x00, 0x10, 0x00, 0x00, 0x40, 0x00, 0x00, 0x00, 0x00, 0x08, 0x00, 0x00,
   0x40, 0x00, 0x00, 0x00, 0x00, 0x00, 0x00, 0x00, 0x40, 0x00, 0x00, 0x00,
   0x00, 0x00, 0x00, 0x00, 0x40, 0x00, 0x00, 0x00, 0x00, 0x01, 0x00, 0x03,
   0x40, 0x00, 0x00, 0x00, 0x80, 0x00, 0xec, 0x00, 0x40, 0x00, 0x00, 0x00,
   0x00, 0x00, 0x1e, 0x00, 0x40, 0x00, 0x00, 0x00, 0x00, 0x00, 0x1e, 0x00,
   0x40, 0x00, 0x00, 0x00, 0x10, 0x80, 0x0d, 0x00, 0x40, 0x00, 0x00, 0x00,
   0x08, 0x60, 0x00, 0x00, 0x40, 0x00, 0x00, 0x00, 0x00, 0x10, 0x00, 0x00,
   0x40, 0x00, 0x00, 0x00, 0x00, 0x0c, 0x00, 0x00, 0x40, 0x00, 0x00, 0x00,
   0xc1, 0x03, 0x00, 0x00, 0x40, 0x00, 0x00, 0x80, 0xe0, 0x01, 0x00, 0x00,
   0x40, 0x00, 0x00, 0x00, 0xe0, 0x01, 0x00, 0x00, 0x40, 0x00, 0x00, 0x00,
   0xf0, 0x00, 0x00, 0x00, 0x40, 0x00, 0x00, 0x10, 0x08, 0x00, 0x00, 0x00,
   0x40, 0x00, 0x00, 0x08, 0x04, 0x00, 0x00, 0x00, 0x40, 0x00, 0x00, 0x00,
   0x03, 0x00, 0x00, 0x00, 0x40, 0x00, 0x00, 0x80, 0x00, 0x00, 0x00, 0x00,
   0x40, 0x00, 0x00, 0x41, 0x00, 0x00, 0x00, 0x00, 0x40, 0x00, 0x80, 0x30,
   0x00, 0x00, 0x00, 0x00, 0x40, 0x00, 0x00, 0x0e, 0x00, 0x00, 0x00, 0x00,
   0x40, 0x00, 0x00, 0x0f, 0x00, 0x00, 0x00, 0x00, 0x40, 0x00, 0x10, 0x0f,
   0x00, 0x00, 0x00, 0x00, 0x40, 0x00, 0x88, 0x06, 0x00, 0x00, 0x00, 0x00,
   0x40, 0x00, 0x40, 0x00, 0x00, 0x00, 0x00, 0x00, 0x40, 0x00, 0x30, 0x00,
   0x00, 0x00, 0x00, 0x00, 0x40, 0x00, 0x09, 0x00, 0x00, 0x00, 0x00, 0x00,
   0x40, 0x80, 0x04, 0x00, 0x00, 0x00, 0x00, 0x00, 0x40, 0x00, 0x03, 0x00,
   0x00, 0x00, 0x00, 0x00, 0x40, 0x80, 0x00, 0x00, 0x00, 0x00, 0x00, 0x00,
   0x40, 0x70, 0x00, 0x00, 0x00, 0x00, 0x00, 0x00, 0x40, 0x78, 0x00, 0x00,
   0x00, 0x00, 0x00, 0x00, 0x40, 0x78, 0x00, 0x00, 0x00, 0x00, 0x00, 0x00,
   0x40, 0x34, 0x00, 0x00, 0x00, 0x00, 0x00, 0x00, 0x40, 0x03, 0x00, 0x00,
   0x00, 0x00, 0x80, 0x01, 0xc0, 0x00, 0x00, 0x00, 0x00, 0x00, 0x80, 0x07,
   0xf8, 0xff, 0xff, 0xff, 0xff, 0xff, 0xff, 0x1f, 0x40, 0x00, 0x00, 0x00,
   0x00, 0x00, 0x80, 0x07, 0x40, 0x00, 0x00, 0x00, 0x00, 0x00, 0x80, 0x01,
   0x40, 0x00, 0x00, 0x00, 0x00, 0x00, 0x00, 0x00, 0x00, 0x00, 0x00, 0x00,
   0x00, 0x00, 0x00, 0x00, 0x00, 0x00, 0x00, 0x00, 0x00, 0x00, 0x00, 0x00,
   0x00, 0x00, 0x00, 0x00, 0x00, 0x00, 0x00, 0x00};
