#define spiffy_width 64
#define spiffy_height 64
static unsigned char spiffy_bits[] = {
  0x00, 0x00, 0x00, 0x00, 0x00, 0x00, 0x00, 0x00, 0x00, 0x00, 0x00, 0x00,
  0x00, 0x00, 0x00, 0x00, 0x00, 0x00, 0x00, 0x00, 0x00, 0x00, 0xc0, 0x01,
  0x00, 0x30, 0x00, 0x00, 0x00, 0x00, 0x38, 0x02, 0x00, 0x40, 0x00, 0x00,
  0x00, 0x00, 0x2f, 0x02, 0x00, 0x40, 0x00, 0x00, 0x00, 0xe0, 0x54, 0x02,
  0x00, 0x40, 0x00, 0x00, 0x00, 0x1e, 0xe8, 0x01, 0x00, 0x20, 0x00, 0x00,
  0xc0, 0x01, 0x78, 0x00, 0x00, 0x10, 0x00, 0x00, 0x38, 0x00, 0x07, 0x00,
  0x00, 0x10, 0x00, 0x80, 0x07, 0xe0, 0x00, 0x00, 0x00, 0x1e, 0x00, 0x70,
  0x00, 0x1e, 0x00, 0x00, 0xe0, 0x03, 0x00, 0x0e, 0xc0, 0x01, 0x00, 0x00,
  0x18, 0x00, 0xe0, 0x01, 0x38, 0x00, 0x00, 0x00, 0x08, 0x00, 0x1c, 0x80,
  0x07, 0x00, 0x00, 0x00, 0x08, 0x80, 0x03, 0x70, 0x00, 0x00, 0x00, 0x00,
  0x08, 0x78, 0x00, 0x0e, 0x00, 0x00, 0x00, 0x00, 0x08, 0x0e, 0xe0, 0x01,
  0x00, 0x00, 0x00, 0x00, 0x08, 0x11, 0x1c, 0x00, 0x00, 0x00, 0x00, 0x00,
  0xd0, 0x91, 0x03, 0x00, 0x00, 0x00, 0x00, 0x00, 0xe0, 0x7f, 0x00, 0x00,
  0x00, 0x00, 0x00, 0x00, 0x00, 0x00, 0x00, 0x00, 0x00, 0x00, 0x00, 0x00,
  0x00, 0x00, 0x00, 0x00, 0x00, 0x00, 0x00, 0x00, 0x00, 0x00, 0x00, 0x00,
  0x00, 0x00, 0x00, 0x00, 0x00, 0x00, 0x00, 0x00, 0x00, 0x00, 0x00, 0x00,
  0x00, 0x00, 0x40, 0x00, 0x02, 0x00, 0x00, 0x00, 0x00, 0x00, 0x00, 0x00,
  0x01, 0x00, 0x00, 0x00, 0x40, 0x3b, 0x5e, 0x0d, 0x01, 0x00, 0x00, 0x00,
  0xc0, 0x6e, 0x51, 0x9b, 0x01, 0x00, 0x00, 0x00, 0x40, 0x44, 0x51, 0x11,
  0x01, 0x00, 0x00, 0x00, 0x40, 0x44, 0x51, 0x11, 0x01, 0x00, 0x00, 0x00,
  0x40, 0x44, 0x5e, 0x11, 0x02, 0x00, 0x00, 0x00, 0x00, 0x00, 0x00, 0x00,
  0x00, 0x00, 0x00, 0x00, 0x00, 0x00, 0x00, 0x00, 0x00, 0x00, 0x00, 0x00,
  0x00, 0x00, 0x00, 0x00, 0x00, 0x00, 0x00, 0x00, 0x00, 0x04, 0x10, 0x08,
  0x00, 0x00, 0x00, 0x00, 0x00, 0x00, 0x10, 0x00, 0x00, 0x00, 0x00, 0x00,
  0x00, 0xd4, 0x7c, 0x08, 0x44, 0x02, 0x00, 0x00, 0x00, 0xb4, 0x11, 0x08,
  0x28, 0x00, 0x00, 0x00, 0x00, 0x14, 0x11, 0x48, 0x10, 0x02, 0x00, 0x00,
  0x00, 0x14, 0x11, 0x48, 0x28, 0x02, 0x00, 0x00, 0x00, 0x14, 0x11, 0x28,
  0x44, 0x01, 0x00, 0x00, 0x00, 0x00, 0x00, 0x00, 0x00, 0x00, 0x00, 0x00,
  0x00, 0x00, 0x00, 0x00, 0x00, 0x00, 0x00, 0x00, 0x00, 0x00, 0x00, 0x00,
  0x00, 0x00, 0x00, 0x00, 0x00, 0x00, 0x00, 0x80, 0x01, 0x00, 0x15, 0x00,
  0x00, 0x00, 0x00, 0x40, 0x00, 0x80, 0x20, 0x00, 0x00, 0x44, 0xf8, 0xf0,
  0x39, 0x8e, 0x24, 0x01, 0x00, 0x28, 0x00, 0x40, 0x44, 0x91, 0x24, 0x00,
  0x00, 0x10, 0xf8, 0x40, 0x44, 0x91, 0x24, 0x01, 0x00, 0x28, 0x00, 0x40,
  0x44, 0x91, 0x24, 0x01, 0x00, 0x44, 0x00, 0x40, 0x38, 0x0e, 0x95, 0x00,
  0x00, 0x00, 0x00, 0x00, 0x00, 0x00, 0x00, 0x00, 0x00, 0x00, 0x00, 0x00,
  0x00, 0x00, 0x00, 0x00, 0x40, 0x00, 0x00, 0x00, 0x00, 0x00, 0x00, 0x00,
  0x80, 0x00, 0x00, 0x00, 0x00, 0x00, 0x00, 0x00, 0x80, 0x00, 0x00, 0x00,
  0x00, 0x00, 0x00, 0x00, 0x80, 0x01, 0x00, 0x00, 0x00, 0x00, 0x00, 0x00,
  0x80, 0x00, 0x00, 0x00, 0x00, 0x00, 0x00, 0x00, 0x80, 0x00, 0x00, 0x00,
  0x00, 0x00, 0x00, 0x00, 0x40, 0x00, 0x00, 0x00, 0x00, 0x00, 0x00, 0x00,
  0x00, 0x00, 0x00, 0x00, 0x00, 0x00, 0x00, 0x00, 0x00, 0x00, 0x00, 0x00,
  0x00, 0x00, 0x00, 0x00, 0x00, 0x00, 0x00, 0x00, 0x00, 0x00, 0x00, 0x00,
  0x00, 0x00, 0x00, 0x00, 0x00, 0x00, 0x00, 0x00, };
