#define vline1_width 6
#define vline1_height 6
static unsigned char vline1_bits[] = {
  0x3f, 0x00, 0x3f, 0x00, 0x3f, 0x00, };
