#define xline4_width 4
#define xline4_height 4
static unsigned char xline4_bits[] = {
  0x09, 0x0c, 0x06, 0x03, };
